<mxfile host="app.diagrams.net" modified="2023-12-04T20:46:19.710Z" agent="Mozilla/5.0 (Windows NT 10.0; Win64; x64) AppleWebKit/537.36 (KHTML, like Gecko) Chrome/119.0.0.0 Safari/537.36" etag="fj01qAlc7Nh7UtHVqRG1" version="22.1.5" type="github">
  <diagram name="Page-1" id="acaJbb7zJqNV8eMt_PW6">
    <mxGraphModel dx="1004" dy="651" grid="1" gridSize="10" guides="1" tooltips="1" connect="1" arrows="1" fold="1" page="1" pageScale="1" pageWidth="850" pageHeight="1100" math="0" shadow="0">
      <root>
        <mxCell id="0" />
        <mxCell id="1" parent="0" />
        <mxCell id="G17-dYgQhkp3kQGCCL7A-1" value="" style="shape=cylinder3;whiteSpace=wrap;html=1;boundedLbl=1;backgroundOutline=1;size=34;" parent="1" vertex="1">
          <mxGeometry x="110" y="160" width="210" height="310" as="geometry" />
        </mxCell>
        <mxCell id="G17-dYgQhkp3kQGCCL7A-2" value="" style="shape=cylinder3;whiteSpace=wrap;html=1;boundedLbl=1;backgroundOutline=1;size=34;" parent="1" vertex="1">
          <mxGeometry x="420" y="160" width="270" height="450" as="geometry" />
        </mxCell>
        <mxCell id="LZWB6dRQu0BiqoScPXUu-1" value="HGL" style="text;strokeColor=none;align=center;fillColor=none;html=1;verticalAlign=middle;whiteSpace=wrap;rounded=0;fontStyle=1" parent="1" vertex="1">
          <mxGeometry x="190" y="180" width="60" height="30" as="geometry" />
        </mxCell>
        <mxCell id="LZWB6dRQu0BiqoScPXUu-3" value="&lt;b&gt;Harvard&lt;br&gt;Dataverse&lt;/b&gt;" style="text;strokeColor=none;align=center;fillColor=none;html=1;verticalAlign=middle;whiteSpace=wrap;rounded=0;" parent="1" vertex="1">
          <mxGeometry x="520" y="180" width="60" height="30" as="geometry" />
        </mxCell>
        <mxCell id="ZmtUY7Tz9JFkTJYe3sri-1" value="" style="rounded=1;whiteSpace=wrap;html=1;" parent="1" vertex="1">
          <mxGeometry x="155" y="250" width="120" height="60" as="geometry" />
        </mxCell>
        <mxCell id="ZmtUY7Tz9JFkTJYe3sri-2" value="" style="rounded=1;whiteSpace=wrap;html=1;" parent="1" vertex="1">
          <mxGeometry x="220" y="350" width="90" height="60" as="geometry" />
        </mxCell>
        <mxCell id="ZmtUY7Tz9JFkTJYe3sri-3" value="" style="rounded=1;whiteSpace=wrap;html=1;" parent="1" vertex="1">
          <mxGeometry x="120" y="350" width="90" height="60" as="geometry" />
        </mxCell>
        <mxCell id="ZmtUY7Tz9JFkTJYe3sri-7" value="Undoing Empires&lt;br&gt;collection record" style="text;html=1;strokeColor=none;fillColor=none;align=center;verticalAlign=middle;whiteSpace=wrap;rounded=0;" parent="1" vertex="1">
          <mxGeometry x="166.25" y="256.25" width="97.5" height="47.5" as="geometry" />
        </mxCell>
        <mxCell id="ZmtUY7Tz9JFkTJYe3sri-8" value="Lines w/observations shapefile" style="text;html=1;strokeColor=none;fillColor=none;align=center;verticalAlign=middle;whiteSpace=wrap;rounded=0;" parent="1" vertex="1">
          <mxGeometry x="140" y="370" width="50" height="20" as="geometry" />
        </mxCell>
        <mxCell id="ZmtUY7Tz9JFkTJYe3sri-10" value="Polygons w/observations shapefile" style="text;html=1;strokeColor=none;fillColor=none;align=center;verticalAlign=middle;whiteSpace=wrap;rounded=0;" parent="1" vertex="1">
          <mxGeometry x="235" y="365" width="60" height="30" as="geometry" />
        </mxCell>
        <mxCell id="ZmtUY7Tz9JFkTJYe3sri-12" value="" style="rounded=1;whiteSpace=wrap;html=1;" parent="1" vertex="1">
          <mxGeometry x="442.51" y="240" width="227.49" height="350" as="geometry" />
        </mxCell>
        <mxCell id="ZmtUY7Tz9JFkTJYe3sri-21" value="" style="shape=cylinder3;whiteSpace=wrap;html=1;boundedLbl=1;backgroundOutline=1;size=21;" parent="1" vertex="1">
          <mxGeometry x="315" y="20" width="130" height="140" as="geometry" />
        </mxCell>
        <mxCell id="ZmtUY7Tz9JFkTJYe3sri-23" value="&lt;b&gt;HOLLIS&lt;/b&gt;" style="text;html=1;strokeColor=none;fillColor=none;align=center;verticalAlign=middle;whiteSpace=wrap;rounded=0;" parent="1" vertex="1">
          <mxGeometry x="350" y="30" width="60" height="30" as="geometry" />
        </mxCell>
        <mxCell id="ZmtUY7Tz9JFkTJYe3sri-24" value="" style="rounded=1;whiteSpace=wrap;html=1;" parent="1" vertex="1">
          <mxGeometry x="340" y="80" width="90" height="50" as="geometry" />
        </mxCell>
        <mxCell id="ZmtUY7Tz9JFkTJYe3sri-25" value="Undoing Empires&lt;br&gt;Collection" style="text;html=1;strokeColor=none;fillColor=none;align=center;verticalAlign=middle;whiteSpace=wrap;rounded=0;" parent="1" vertex="1">
          <mxGeometry x="355" y="90" width="60" height="30" as="geometry" />
        </mxCell>
        <mxCell id="ZmtUY7Tz9JFkTJYe3sri-28" value="" style="endArrow=classic;html=1;rounded=0;exitX=0;exitY=1;exitDx=0;exitDy=0;entryX=1;entryY=0;entryDx=0;entryDy=0;" parent="1" source="ZmtUY7Tz9JFkTJYe3sri-24" target="ZmtUY7Tz9JFkTJYe3sri-1" edge="1">
          <mxGeometry width="50" height="50" relative="1" as="geometry">
            <mxPoint x="400" y="360" as="sourcePoint" />
            <mxPoint x="450" y="310" as="targetPoint" />
          </mxGeometry>
        </mxCell>
        <mxCell id="ZmtUY7Tz9JFkTJYe3sri-29" value="" style="endArrow=classic;html=1;rounded=0;exitX=1;exitY=0.75;exitDx=0;exitDy=0;" parent="1" source="ZmtUY7Tz9JFkTJYe3sri-24" target="ZmtUY7Tz9JFkTJYe3sri-12" edge="1">
          <mxGeometry width="50" height="50" relative="1" as="geometry">
            <mxPoint x="400" y="360" as="sourcePoint" />
            <mxPoint x="450" y="310" as="targetPoint" />
          </mxGeometry>
        </mxCell>
        <mxCell id="ZmtUY7Tz9JFkTJYe3sri-31" value="FGDC" style="text;html=1;strokeColor=none;fillColor=none;align=center;verticalAlign=middle;whiteSpace=wrap;rounded=0;" parent="1" vertex="1">
          <mxGeometry x="10" y="365" width="60" height="30" as="geometry" />
        </mxCell>
        <mxCell id="ZmtUY7Tz9JFkTJYe3sri-32" value="" style="endArrow=classic;html=1;rounded=0;exitX=1;exitY=0.5;exitDx=0;exitDy=0;" parent="1" source="ZmtUY7Tz9JFkTJYe3sri-31" edge="1">
          <mxGeometry width="50" height="50" relative="1" as="geometry">
            <mxPoint x="80" y="390" as="sourcePoint" />
            <mxPoint x="100" y="380" as="targetPoint" />
          </mxGeometry>
        </mxCell>
        <mxCell id="ZmtUY7Tz9JFkTJYe3sri-33" value="Readme html" style="text;html=1;strokeColor=none;fillColor=none;align=center;verticalAlign=middle;whiteSpace=wrap;rounded=0;" parent="1" vertex="1">
          <mxGeometry x="10" y="265" width="60" height="30" as="geometry" />
        </mxCell>
        <mxCell id="ZmtUY7Tz9JFkTJYe3sri-34" value="" style="endArrow=classic;html=1;rounded=0;exitX=1;exitY=0.5;exitDx=0;exitDy=0;" parent="1" edge="1">
          <mxGeometry width="50" height="50" relative="1" as="geometry">
            <mxPoint x="71" y="280" as="sourcePoint" />
            <mxPoint x="101" y="280" as="targetPoint" />
          </mxGeometry>
        </mxCell>
        <mxCell id="ZmtUY7Tz9JFkTJYe3sri-14" value="" style="rounded=1;whiteSpace=wrap;html=1;" parent="1" vertex="1">
          <mxGeometry x="460" y="280" width="190" height="290.62" as="geometry" />
        </mxCell>
        <mxCell id="ZmtUY7Tz9JFkTJYe3sri-13" value="Undoing Empires Dataverse" style="text;html=1;strokeColor=none;fillColor=none;align=center;verticalAlign=middle;whiteSpace=wrap;rounded=0;" parent="1" vertex="1">
          <mxGeometry x="471.26" y="290" width="170" height="30" as="geometry" />
        </mxCell>
        <mxCell id="lXyDXzNNx43w-YlPzHwI-1" value="Imperiia Dataverse" style="text;html=1;strokeColor=none;fillColor=none;align=center;verticalAlign=middle;whiteSpace=wrap;rounded=0;" parent="1" vertex="1">
          <mxGeometry x="496.26" y="250" width="120" height="30" as="geometry" />
        </mxCell>
        <mxCell id="lXyDXzNNx43w-YlPzHwI-3" value="" style="shape=trapezoid;perimeter=trapezoidPerimeter;whiteSpace=wrap;html=1;fixedSize=1;" parent="1" vertex="1">
          <mxGeometry x="35" y="40" width="175" height="70" as="geometry" />
        </mxCell>
        <mxCell id="lXyDXzNNx43w-YlPzHwI-4" value="&lt;b&gt;Imperiia Project Web site&lt;/b&gt;" style="text;html=1;strokeColor=none;fillColor=none;align=center;verticalAlign=middle;whiteSpace=wrap;rounded=0;" parent="1" vertex="1">
          <mxGeometry x="92.5" y="60" width="60" height="30" as="geometry" />
        </mxCell>
        <mxCell id="lXyDXzNNx43w-YlPzHwI-5" value="Codebooks and documentation" style="rounded=0;whiteSpace=wrap;html=1;" parent="1" vertex="1">
          <mxGeometry x="485" y="322" width="140" height="50" as="geometry" />
        </mxCell>
        <mxCell id="lXyDXzNNx43w-YlPzHwI-6" value="Shapefiles both with &amp;amp; w/o observations" style="rounded=0;whiteSpace=wrap;html=1;" parent="1" vertex="1">
          <mxGeometry x="485" y="376" width="140" height="60" as="geometry" />
        </mxCell>
        <mxCell id="lXyDXzNNx43w-YlPzHwI-7" value="GeoJSON both with &amp;amp; w/o observations" style="rounded=0;whiteSpace=wrap;html=1;" parent="1" vertex="1">
          <mxGeometry x="485" y="440" width="140" height="60" as="geometry" />
        </mxCell>
        <mxCell id="lXyDXzNNx43w-YlPzHwI-8" value="Data xslxs" style="rounded=0;whiteSpace=wrap;html=1;" parent="1" vertex="1">
          <mxGeometry x="486.26" y="505" width="140" height="50" as="geometry" />
        </mxCell>
        <mxCell id="ZmtUY7Tz9JFkTJYe3sri-6" value="" style="endArrow=classic;html=1;rounded=0;exitX=1;exitY=0.5;exitDx=0;exitDy=0;entryX=0;entryY=0.5;entryDx=0;entryDy=0;" parent="1" source="ZmtUY7Tz9JFkTJYe3sri-1" target="lXyDXzNNx43w-YlPzHwI-5" edge="1">
          <mxGeometry width="50" height="50" relative="1" as="geometry">
            <mxPoint x="400" y="360" as="sourcePoint" />
            <mxPoint x="440" y="290" as="targetPoint" />
          </mxGeometry>
        </mxCell>
        <mxCell id="lXyDXzNNx43w-YlPzHwI-9" value="" style="endArrow=classic;html=1;rounded=0;exitX=1;exitY=0.5;exitDx=0;exitDy=0;entryX=0;entryY=0.5;entryDx=0;entryDy=0;" parent="1" source="ZmtUY7Tz9JFkTJYe3sri-1" target="lXyDXzNNx43w-YlPzHwI-6" edge="1">
          <mxGeometry width="50" height="50" relative="1" as="geometry">
            <mxPoint x="285" y="290" as="sourcePoint" />
            <mxPoint x="495" y="357" as="targetPoint" />
          </mxGeometry>
        </mxCell>
        <mxCell id="lXyDXzNNx43w-YlPzHwI-10" value="" style="endArrow=classic;html=1;rounded=0;entryX=0;entryY=0.5;entryDx=0;entryDy=0;exitX=1;exitY=0.5;exitDx=0;exitDy=0;" parent="1" source="ZmtUY7Tz9JFkTJYe3sri-1" target="lXyDXzNNx43w-YlPzHwI-7" edge="1">
          <mxGeometry width="50" height="50" relative="1" as="geometry">
            <mxPoint x="320" y="320" as="sourcePoint" />
            <mxPoint x="525" y="510" as="targetPoint" />
          </mxGeometry>
        </mxCell>
        <mxCell id="lXyDXzNNx43w-YlPzHwI-11" value="" style="endArrow=classic;html=1;rounded=0;exitX=1;exitY=0.5;exitDx=0;exitDy=0;entryX=0;entryY=0.5;entryDx=0;entryDy=0;" parent="1" source="ZmtUY7Tz9JFkTJYe3sri-1" target="lXyDXzNNx43w-YlPzHwI-8" edge="1">
          <mxGeometry width="50" height="50" relative="1" as="geometry">
            <mxPoint x="115" y="500" as="sourcePoint" />
            <mxPoint x="325" y="626" as="targetPoint" />
          </mxGeometry>
        </mxCell>
        <mxCell id="NQXHV1okiRd1N2RWz7d6-1" value="" style="endArrow=classic;html=1;rounded=0;entryX=0.25;entryY=1;entryDx=0;entryDy=0;exitX=0.5;exitY=0;exitDx=0;exitDy=0;" edge="1" parent="1" source="ZmtUY7Tz9JFkTJYe3sri-3" target="ZmtUY7Tz9JFkTJYe3sri-1">
          <mxGeometry width="50" height="50" relative="1" as="geometry">
            <mxPoint x="170" y="347" as="sourcePoint" />
            <mxPoint x="190.625" y="310.75" as="targetPoint" />
          </mxGeometry>
        </mxCell>
        <mxCell id="NQXHV1okiRd1N2RWz7d6-3" value="" style="endArrow=classic;html=1;rounded=0;exitX=0.5;exitY=0;exitDx=0;exitDy=0;entryX=0.75;entryY=1;entryDx=0;entryDy=0;" edge="1" parent="1" source="ZmtUY7Tz9JFkTJYe3sri-2" target="ZmtUY7Tz9JFkTJYe3sri-1">
          <mxGeometry width="50" height="50" relative="1" as="geometry">
            <mxPoint x="257.98" y="348.02" as="sourcePoint" />
            <mxPoint x="250" y="320" as="targetPoint" />
          </mxGeometry>
        </mxCell>
        <mxCell id="NQXHV1okiRd1N2RWz7d6-5" value="" style="endArrow=classic;html=1;rounded=0;exitX=0;exitY=0.5;exitDx=0;exitDy=0;" edge="1" parent="1" source="ZmtUY7Tz9JFkTJYe3sri-1">
          <mxGeometry width="50" height="50" relative="1" as="geometry">
            <mxPoint x="15" y="160" as="sourcePoint" />
            <mxPoint x="65" y="110" as="targetPoint" />
            <Array as="points">
              <mxPoint x="70" y="260" />
            </Array>
          </mxGeometry>
        </mxCell>
      </root>
    </mxGraphModel>
  </diagram>
</mxfile>
